<svg width="393" height="367" viewBox="0 0 393 367" fill="none" xmlns="http://www.w3.org/2000/svg">
<g clip-path="url(#clip0_3058_13505)">
<path d="M139.111 236.811C140.882 235.32 143.602 236.31 144 238.591L162.888 346.966C163.284 349.238 161.074 351.089 158.906 350.3L55.8867 312.804C53.719 312.015 53.2157 309.177 54.9798 307.69L139.111 236.811Z" fill="#9E9E9E"/>
</g>
<g clip-path="url(#clip1_3058_13505)">
<path d="M90.3192 -54.1724C93.4731 -61.3082 100.856 -65.5709 108.613 -64.7344L167.739 -58.3577C175.509 -57.5198 181.885 -51.7571 183.528 -44.087L196.024 14.2215C197.666 21.8838 194.212 29.7068 187.467 33.6008L136.053 63.2849C129.308 67.179 120.806 66.2589 114.991 61.0057L70.7426 21.0298C64.922 15.7713 63.1193 7.36829 66.2783 0.220897L90.3192 -54.1724Z" fill="#9E9E9E"/>
</g>
<rect x="-12.3389" y="89.1417" width="112.5" height="52.5" rx="15" transform="rotate(-30 -12.3389 89.1417)" fill="#9E9E9E"/>
<circle cx="311.25" cy="173" r="12" fill="#9E9E9E"/>
<circle cx="93.75" cy="102.5" r="12" fill="#9E9E9E"/>
<circle cx="345.75" cy="-4" r="27" fill="#9E9E9E"/>
<rect x="220.56" y="-21.6613" width="150" height="66" rx="15" transform="rotate(20 220.56 -21.6613)" fill="#9E9E9E"/>
<circle cx="90.75" cy="339.5" r="15" fill="#9E9E9E"/>
<circle cx="369.75" cy="200" r="27" fill="#9E9E9E"/>
<circle cx="170.25" cy="263" r="15" fill="#9E9E9E"/>
<circle cx="306.75" cy="96.5" r="15" fill="#9E9E9E"/>
<circle cx="26.25" cy="29" r="37.5" fill="#9E9E9E"/>
<circle cx="68.25" cy="135.5" r="30" fill="#9E9E9E"/>
<circle cx="264.75" cy="336.5" r="19.5" fill="#9E9E9E"/>
<circle cx="206.25" cy="311" r="45" fill="#9E9E9E"/>
<circle cx="200.25" cy="149" r="102" fill="#9E9E9E"/>
<g clip-path="url(#clip2_3058_13505)">
<rect x="226.655" y="269" width="126" height="126" transform="rotate(-45 226.655 269)" fill="white"/>
<path fill-rule="evenodd" clip-rule="evenodd" d="M367.564 273.595L384.105 287.128C384.874 287.758 384.932 288.914 384.229 289.617L336.367 337.479C335.664 338.182 334.508 338.124 333.878 337.355L320.345 320.814C310.055 330.477 293.877 330.283 283.824 320.23C273.573 309.979 273.573 293.358 283.824 283.107L283.829 283.102C279.034 270.383 281.755 255.477 291.991 245.241C302.227 235.005 317.133 232.284 329.852 237.079C329.853 237.078 329.855 237.076 329.857 237.074C340.108 226.823 356.729 226.823 366.98 237.074C377.033 247.127 377.227 263.305 367.564 273.595Z" fill="#282828"/>
<path fill-rule="evenodd" clip-rule="evenodd" d="M331.086 310.091L326.887 314.29C331.179 315.569 336.018 314.514 339.407 311.126C342.796 307.737 343.851 302.898 342.571 298.606L338.428 302.749C338.791 304.719 338.21 306.827 336.687 308.35C335.164 309.873 333.055 310.454 331.086 310.091Z" fill="white"/>
<path fill-rule="evenodd" clip-rule="evenodd" d="M349.453 291.724L345.356 295.822C349.647 297.101 354.487 296.046 357.875 292.657C361.264 289.268 362.319 284.429 361.04 280.137L356.795 284.383C357.157 286.352 356.577 288.461 355.054 289.984C353.531 291.507 351.422 292.087 349.453 291.724Z" fill="white"/>
</g>
<circle cx="54.75" cy="227" r="60" fill="#9E9E9E"/>
<g clip-path="url(#clip3_3058_13505)">
<path d="M391.665 125.593C393.778 129.248 393.778 133.752 391.665 137.407L374.831 166.518C372.717 170.173 368.811 172.425 364.584 172.425H330.916C326.689 172.425 322.783 170.173 320.669 166.518L303.835 137.407C301.722 133.752 301.722 129.248 303.835 125.593L320.669 96.482C322.783 92.8267 326.689 90.575 330.916 90.575L364.584 90.575C368.811 90.575 372.717 92.8267 374.831 96.482L391.665 125.593Z" fill="#9E9E9E"/>
</g>
<defs>
<clipPath id="clip0_3058_13505">
<rect width="120" height="120" fill="white" transform="translate(89.3896 205.597) rotate(20)"/>
</clipPath>
<clipPath id="clip1_3058_13505">
<rect width="132" height="132" fill="white" transform="translate(39.5923 -31.1577) rotate(-30)"/>
</clipPath>
<clipPath id="clip2_3058_13505">
<rect x="226.655" y="269" width="126" height="126" rx="30" transform="rotate(-45 226.655 269)" fill="white"/>
</clipPath>
<clipPath id="clip3_3058_13505">
<rect width="91.5" height="91.5" fill="white" transform="translate(302.25 86)"/>
</clipPath>
</defs>
</svg>
