<svg width="32" height="32" viewBox="0 0 32 32" fill="none" xmlns="http://www.w3.org/2000/svg">
<rect width="32" height="32" rx="16" fill="#333333"/>
<path fill-rule="evenodd" clip-rule="evenodd" d="M11 17.5C11.8284 17.5 12.5 16.8284 12.5 16C12.5 15.1716 11.8284 14.5 11 14.5C10.1716 14.5 9.5 15.1716 9.5 16C9.5 16.8284 10.1716 17.5 11 17.5ZM17.5 16C17.5 16.8284 16.8284 17.5 16 17.5C15.1716 17.5 14.5 16.8284 14.5 16C14.5 15.1716 15.1716 14.5 16 14.5C16.8284 14.5 17.5 15.1716 17.5 16ZM22.5 16C22.5 16.8284 21.8284 17.5 21 17.5C20.1716 17.5 19.5 16.8284 19.5 16C19.5 15.1716 20.1716 14.5 21 14.5C21.8284 14.5 22.5 15.1716 22.5 16Z" fill="white"/>
</svg>
