<svg width="40" height="40" viewBox="0 0 40 40" fill="none" xmlns="http://www.w3.org/2000/svg">
<rect width="40" height="40" rx="4" fill="#333333"/>
<path fill-rule="evenodd" clip-rule="evenodd" d="M20 13.75C20.4142 13.75 20.75 14.0858 20.75 14.5V19.25H25.5C25.9142 19.25 26.25 19.5858 26.25 20C26.25 20.4142 25.9142 20.75 25.5 20.75H20.75V25.5C20.75 25.9142 20.4142 26.25 20 26.25C19.5858 26.25 19.25 25.9142 19.25 25.5V20.75H14.5C14.0858 20.75 13.75 20.4142 13.75 20C13.75 19.5858 14.0858 19.25 14.5 19.25H19.25V14.5C19.25 14.0858 19.5858 13.75 20 13.75Z" fill="white"/>
</svg>
