<svg width="44" height="44" viewBox="0 0 44 44" fill="none" xmlns="http://www.w3.org/2000/svg">
<rect width="44" height="44" rx="22" fill="#333333"/>
<mask id="path-2-inside-1_4748_11798" fill="white">
<path fill-rule="evenodd" clip-rule="evenodd" d="M22 27C25.866 27 29 25 29 21C29 17 25.866 15 22 15C18.134 15 15 17 15 21C15 23.117 15.8779 24.6738 17.2775 25.6704L17.1538 27.1543C17.071 28.1479 17.8551 29 18.8521 29C19.2695 29 19.6723 28.8468 19.9843 28.5695L21.7531 26.9973C21.835 26.9991 21.9174 27 22 27Z"/>
</mask>
<path d="M17.2775 25.6704L18.7723 25.7949L18.8432 24.9438L18.1475 24.4485L17.2775 25.6704ZM17.1538 27.1543L18.6486 27.2789L17.1538 27.1543ZM19.9843 28.5695L20.9808 29.6907L20.9808 29.6907L19.9843 28.5695ZM21.7531 26.9973L21.7865 25.4976L21.1972 25.4845L20.7565 25.8761L21.7531 26.9973ZM27.5 21C27.5 22.5634 26.9094 23.6208 26.0203 24.3226C25.0868 25.0596 23.6948 25.5 22 25.5V28.5C24.1712 28.5 26.2792 27.9404 27.8792 26.6774C29.5236 25.3792 30.5 23.4366 30.5 21H27.5ZM22 16.5C23.6948 16.5 25.0868 16.9404 26.0203 17.6774C26.9094 18.3792 27.5 19.4366 27.5 21H30.5C30.5 18.5634 29.5236 16.6208 27.8792 15.3226C26.2792 14.0596 24.1712 13.5 22 13.5V16.5ZM16.5 21C16.5 19.4366 17.0906 18.3792 17.9797 17.6774C18.9132 16.9404 20.3052 16.5 22 16.5V13.5C19.8288 13.5 17.7208 14.0596 16.1208 15.3226C14.4764 16.6208 13.5 18.5634 13.5 21H16.5ZM18.1475 24.4485C17.1559 23.7424 16.5 22.6477 16.5 21H13.5C13.5 23.5863 14.5998 25.6051 16.4074 26.8923L18.1475 24.4485ZM18.6486 27.2789L18.7723 25.7949L15.7827 25.5458L15.659 27.0297L18.6486 27.2789ZM18.8521 27.5C18.7326 27.5 18.6387 27.3979 18.6486 27.2789L15.659 27.0297C15.5033 28.8978 16.9775 30.5 18.8521 30.5V27.5ZM18.9877 27.4484C18.9503 27.4817 18.9021 27.5 18.8521 27.5V30.5C19.6368 30.5 20.3943 30.212 20.9808 29.6907L18.9877 27.4484ZM20.7565 25.8761L18.9877 27.4484L20.9808 29.6907L22.7496 28.1184L20.7565 25.8761ZM22 25.5C21.9284 25.5 21.8572 25.4992 21.7865 25.4976L21.7196 28.4969C21.8128 28.499 21.9063 28.5 22 28.5V25.5Z" fill="white" mask="url(#path-2-inside-1_4748_11798)"/>
</svg>
