<svg width="20" height="20" viewBox="0 0 20 20" fill="none" xmlns="http://www.w3.org/2000/svg">
<path fill-rule="evenodd" clip-rule="evenodd" d="M10 0.625C10.6213 0.625 11.125 1.12868 11.125 1.75V8.875H18.25C18.8713 8.875 19.375 9.37868 19.375 10C19.375 10.6213 18.8713 11.125 18.25 11.125H11.125V18.25C11.125 18.8713 10.6213 19.375 10 19.375C9.37868 19.375 8.875 18.8713 8.875 18.25V11.125H1.75C1.12868 11.125 0.625 10.6213 0.625 10C0.625 9.37868 1.12868 8.875 1.75 8.875H8.875V1.75C8.875 1.12868 9.37868 0.625 10 0.625Z" fill="#282828"/>
</svg>
