<svg width="25" height="24" viewBox="0 0 25 24" fill="none" xmlns="http://www.w3.org/2000/svg">
<path d="M19.0621 8.45739C18.9857 8.50195 17.1671 9.44248 17.1671 11.5279C17.2528 13.9061 19.4621 14.7401 19.5 14.7401C19.4621 14.7847 19.1665 15.8763 18.2907 17.0205C17.5956 18.0062 16.8242 19 15.6528 19C14.5385 19 14.1385 18.3431 12.8528 18.3431C11.472 18.3431 11.0813 19 10.0242 19C8.85277 19 8.02419 17.953 7.29127 16.9766C6.3391 15.6986 5.52978 13.6931 5.50121 11.7675C5.48195 10.7471 5.69189 9.74403 6.22481 8.89206C6.97699 7.70265 8.31985 6.89524 9.78631 6.86862C10.9099 6.83331 11.9099 7.58747 12.5956 7.58747C13.2528 7.58747 14.4814 6.86862 15.8714 6.86862C16.4714 6.86919 18.0714 7.03762 19.0621 8.45739ZM12.5006 6.66488C12.3006 5.73303 12.8528 4.80119 13.3671 4.20677C14.0242 3.48792 15.0621 3 15.9571 3C16.0143 3.93185 15.6522 4.84575 15.005 5.51136C14.4242 6.23021 13.4242 6.77138 12.5006 6.66488Z" fill="#282828"/>
</svg>
