<svg width="24" height="24" viewBox="0 0 24 24" fill="none" xmlns="http://www.w3.org/2000/svg">
<path fill-rule="evenodd" clip-rule="evenodd" d="M6.99791 11.7333L7.9267 7.08931C8.31503 5.14764 10.0199 3.75 12 3.75C13.9801 3.75 15.685 5.14764 16.0733 7.0893L17.0021 11.7333C17.2793 13.1195 17.9607 14.3927 18.9604 15.3924L19.2511 15.6831C19.4105 15.8424 19.5 16.0586 19.5 16.284C19.5 16.6798 19.2268 17.0231 18.8412 17.1121L17.6094 17.3964C13.9183 18.2482 10.0817 18.2482 6.39058 17.3964L5.15877 17.1121C4.77316 17.0231 4.5 16.6798 4.5 16.284C4.5 16.0586 4.58954 15.8424 4.74892 15.6831L3.15793 14.0921L4.74892 15.6831L5.03961 15.3924C6.03926 14.3927 6.72065 13.1195 6.99791 11.7333ZM9.06548 20.1265C7.99815 20.0106 6.93598 19.8314 5.88465 19.5888L4.65284 19.3045C3.24633 18.9799 2.25 17.7275 2.25 16.284C2.25 15.4619 2.57659 14.6734 3.15793 14.0921L3.44862 13.8014C4.13417 13.1158 4.60146 12.2427 4.7916 11.292L5.72039 6.64805C6.31906 3.65468 8.94735 1.5 12 1.5C15.0527 1.5 17.6809 3.65467 18.2796 6.64804L19.2084 11.292C19.3985 12.2427 19.8658 13.1158 20.5514 13.8014L20.8421 14.0921C21.4234 14.6734 21.75 15.4619 21.75 16.284C21.75 17.7275 20.7537 18.9799 19.3472 19.3045L18.1154 19.5888C17.064 19.8314 16.0019 20.0106 14.9345 20.1265C14.6465 21.4827 13.4421 22.5001 12 22.5001C10.5579 22.5001 9.35353 21.4827 9.06548 20.1265Z" fill="white"/>
</svg>
