<svg width="20" height="20" viewBox="0 0 20 20" fill="none" xmlns="http://www.w3.org/2000/svg">
<path fill-rule="evenodd" clip-rule="evenodd" d="M9.34531 4.63375C9.43525 4.67988 9.52439 4.72816 9.61265 4.77859L10 4.99993L10.3873 4.77859C10.4756 4.72816 10.5647 4.67988 10.6547 4.63375C12.5465 3.66361 14.7942 3.64702 16.7065 4.60319C17.1928 4.84634 17.5 5.34337 17.5 5.88707V14.8253C17.5 15.474 16.9741 15.9999 16.3254 15.9999H16.2845C16.0983 15.9999 15.9157 15.9493 15.7561 15.8536C14.3509 15.0105 12.6124 14.9437 11.1468 15.6766L10.9472 15.7763C10.8828 15.8085 10.817 15.8373 10.75 15.8627C10.5109 15.9532 10.2568 15.9999 10 15.9999H9.88327C9.66535 15.9999 9.45002 15.9561 9.25 15.8713C9.21867 15.8581 9.18772 15.8438 9.15719 15.8285L8.9242 15.712C7.41433 14.9571 5.62342 15.0259 4.1759 15.8944C4.0608 15.9635 3.92909 15.9999 3.79486 15.9999H3.67464C3.02591 15.9999 2.5 15.474 2.5 14.8253V5.88707C2.5 5.34337 2.80718 4.84634 3.29348 4.60319C5.20582 3.64702 7.45355 3.66361 9.34531 4.63375ZM10.75 14.206V6.29899L11.1316 6.08095C12.6292 5.22517 14.4529 5.16832 16 5.92715V14.2838C14.35 13.4963 12.4315 13.4639 10.75 14.206ZM9.25 14.2104V6.29899L8.86844 6.08095C7.37082 5.22517 5.54709 5.16832 4 5.92715V14.2918C5.65407 13.5218 7.56451 13.4885 9.25 14.2104Z" fill="#9E9E9E"/>
</svg>
