<svg width="24" height="19" viewBox="0 0 24 19" fill="none" xmlns="http://www.w3.org/2000/svg">
<path fill-rule="evenodd" clip-rule="evenodd" d="M11.018 1.95087C11.1529 2.02006 11.2866 2.09248 11.419 2.16813L12 2.50014L12.581 2.16813C12.7134 2.09248 12.8471 2.02006 12.982 1.95087C15.8197 0.495655 19.1913 0.470779 22.0598 1.90503C22.7892 2.26975 23.25 3.0153 23.25 3.83085V17.2382C23.25 18.2113 22.4611 19.0001 21.488 19.0001H21.4267C21.1475 19.0001 20.8735 18.9243 20.6341 18.7806C18.5264 17.516 15.9186 17.4158 13.7201 18.5151L13.4208 18.6647C13.3242 18.713 13.2255 18.7562 13.125 18.7943C12.7664 18.9301 12.3853 19.0001 12 19.0001H11.8249C11.498 19.0001 11.175 18.9343 10.875 18.8072C10.828 18.7873 10.7816 18.7659 10.7358 18.743L10.3863 18.5683C8.1215 17.4359 5.43513 17.5391 3.26385 18.8418C3.0912 18.9454 2.89364 19.0001 2.6923 19.0001H2.51196C1.53886 19.0001 0.75 18.2113 0.75 17.2382V3.83085C0.75 3.01531 1.21077 2.26975 1.94022 1.90503C4.80873 0.470779 8.18032 0.495654 11.018 1.95087ZM13.125 16.3093V4.44873L13.6973 4.12168C15.9438 2.838 18.6794 2.75273 21 3.89097V16.426C18.5249 15.2447 15.6473 15.1961 13.125 16.3093ZM10.875 16.3159C8.34677 15.2329 5.4811 15.2829 3 16.4379V3.89097C5.32063 2.75273 8.05622 2.838 10.3027 4.12168L10.875 4.44873V16.3159Z" fill="white"/>
</svg>
