<svg width="24" height="23" viewBox="0 0 24 23" fill="none" xmlns="http://www.w3.org/2000/svg">
<path fill-rule="evenodd" clip-rule="evenodd" d="M10.875 3H9.75C8.92157 3 8.25 3.67157 8.25 4.5V9C8.25 9.82843 8.92157 10.5 9.75 10.5H14.25C15.0784 10.5 15.75 9.82843 15.75 9V4.5C15.75 3.67157 15.0784 3 14.25 3H13.125V5.625C13.125 6.24632 12.6213 6.75 12 6.75C11.3787 6.75 10.875 6.24632 10.875 5.625V3ZM9.75 0.75C7.67893 0.75 6 2.42893 6 4.5V9C6 9.53333 6.11134 10.0407 6.31203 10.5H4.5C2.42893 10.5 0.75 12.1789 0.75 14.25V18.75C0.75 20.8211 2.42893 22.5 4.5 22.5H9H9.375H14.625H15H19.5C21.5711 22.5 23.25 20.8211 23.25 18.75V14.25C23.25 12.1789 21.5711 10.5 19.5 10.5H17.688C17.8887 10.0407 18 9.53333 18 9V4.5C18 2.42893 16.3211 0.75 14.25 0.75H9.75ZM10.875 14.25C10.875 13.4216 10.2034 12.75 9.375 12.75H7.875V15.375C7.875 15.9963 7.37132 16.5 6.75 16.5C6.12868 16.5 5.625 15.9963 5.625 15.375V12.75H4.5C3.67157 12.75 3 13.4216 3 14.25V18.75C3 19.5784 3.67157 20.25 4.5 20.25H9.375C10.2034 20.25 10.875 19.5784 10.875 18.75V14.25ZM13.125 18.75C13.125 19.5784 13.7966 20.25 14.625 20.25H19.5C20.3284 20.25 21 19.5784 21 18.75V14.25C21 13.4216 20.3284 12.75 19.5 12.75H18.375V15.375C18.375 15.9963 17.8713 16.5 17.25 16.5C16.6287 16.5 16.125 15.9963 16.125 15.375V12.75H14.625C13.7966 12.75 13.125 13.4216 13.125 14.25V18.75Z" fill="white"/>
</svg>
