<svg width="20" height="20" viewBox="0 0 20 20" fill="none" xmlns="http://www.w3.org/2000/svg">
<path fill-rule="evenodd" clip-rule="evenodd" d="M9.25 4H8.5C7.94772 4 7.5 4.44772 7.5 5V8C7.5 8.55228 7.94772 9 8.5 9H11.5C12.0523 9 12.5 8.55228 12.5 8V5C12.5 4.44772 12.0523 4 11.5 4H10.75V5.74997C10.75 6.16418 10.4142 6.49997 10 6.49997C9.58579 6.49997 9.25 6.16418 9.25 5.74997V4ZM8.5 2.5C7.11929 2.5 6 3.61929 6 5V8C6 8.35555 6.07422 8.69377 6.20802 9H5C3.61929 9 2.5 10.1193 2.5 11.5V14.5C2.5 15.8807 3.61929 17 5 17H8H8.25H11.75H12H15C16.3807 17 17.5 15.8807 17.5 14.5V11.5C17.5 10.1193 16.3807 9 15 9H13.792C13.9258 8.69377 14 8.35555 14 8V5C14 3.61929 12.8807 2.5 11.5 2.5H8.5ZM9.25 11.5C9.25 10.9477 8.80228 10.5 8.25 10.5H7.25V12.25C7.25 12.6642 6.91421 13 6.5 13C6.08579 13 5.75 12.6642 5.75 12.25V10.5H5C4.44772 10.5 4 10.9477 4 11.5V14.5C4 15.0523 4.44772 15.5 5 15.5H8.25C8.80228 15.5 9.25 15.0523 9.25 14.5V11.5ZM10.75 14.5C10.75 15.0523 11.1977 15.5 11.75 15.5H15C15.5523 15.5 16 15.0523 16 14.5V11.5C16 10.9477 15.5523 10.5 15 10.5H14.25V12.25C14.25 12.6642 13.9142 13 13.5 13C13.0858 13 12.75 12.6642 12.75 12.25V10.5H11.75C11.1977 10.5 10.75 10.9477 10.75 11.5V14.5Z" fill="#9E9E9E"/>
</svg>
