<svg width="14" height="14" viewBox="0 0 14 14" fill="none" xmlns="http://www.w3.org/2000/svg">
<path fill-rule="evenodd" clip-rule="evenodd" d="M4.25 4.49527C3.83579 4.49527 3.5 4.15949 3.5 3.74527V2.99855C2.67157 2.99855 2 3.67012 2 4.49855V5.49855H12V4.49855C12 3.67012 11.3284 2.99855 10.5 2.99855V3.74857C10.5 4.16278 10.1642 4.49857 9.75 4.49857C9.33579 4.49857 9 4.16278 9 3.74857V2.99855H5V3.74527C5 4.15949 4.66421 4.49527 4.25 4.49527ZM9 1.49855H5V0.746094C5 0.33188 4.66421 -0.00390625 4.25 -0.00390625C3.83579 -0.00390625 3.5 0.33188 3.5 0.746094V1.49855C1.84315 1.49855 0.5 2.84169 0.5 4.49855V10.4985C0.5 12.1554 1.84315 13.4985 3.5 13.4985H10.5C12.1569 13.4985 13.5 12.1554 13.5 10.4985V4.49855C13.5 2.84169 12.1569 1.49855 10.5 1.49855V0.748549C10.5 0.334335 10.1642 -0.00145126 9.75 -0.00145125C9.33579 -0.00145125 9 0.334335 9 0.748549V1.49855ZM2 6.99855V10.4985C2 11.327 2.67157 11.9985 3.5 11.9985H10.5C11.3284 11.9985 12 11.327 12 10.4985V6.99855H2Z" fill="white"/>
</svg>
