<svg width="20" height="20" viewBox="0 0 20 20" fill="none" xmlns="http://www.w3.org/2000/svg">
<path fill-rule="evenodd" clip-rule="evenodd" d="M13 10.5C13 12.1569 11.6569 13.5 10 13.5C8.34315 13.5 7 12.1569 7 10.5C7 8.84315 8.34315 7.5 10 7.5C11.6569 7.5 13 8.84315 13 10.5ZM12.4375 10.5C12.4375 11.8462 11.3462 12.9375 10 12.9375C8.65381 12.9375 7.5625 11.8462 7.5625 10.5C7.5625 9.15381 8.65381 8.0625 10 8.0625C11.3462 8.0625 12.4375 9.15381 12.4375 10.5Z" fill="white"/>
<path fill-rule="evenodd" clip-rule="evenodd" d="M8.40085 3.5C7.55984 3.5 6.80868 4.02613 6.52127 4.81651L6.27273 5.5H6C4.34315 5.5 3 6.84315 3 8.5V13C3 14.6569 4.34315 16 6 16H14C15.6569 16 17 14.6569 17 13V8.5C17 6.84315 15.6569 5.5 14 5.5H13.7273L13.4787 4.81651C13.1913 4.02614 12.4402 3.5 11.5991 3.5H8.40085ZM6.66672 6.0625L7.0499 5.00874C7.25648 4.44066 7.79638 4.0625 8.40085 4.0625H11.5991C12.2036 4.0625 12.7435 4.44066 12.9501 5.00874L13.3333 6.0625H14C15.3462 6.0625 16.4375 7.15381 16.4375 8.5V13C16.4375 14.3462 15.3462 15.4375 14 15.4375H6C4.65381 15.4375 3.5625 14.3462 3.5625 13V8.5C3.5625 7.15381 4.65381 6.0625 6 6.0625H6.66672Z" fill="white"/>
<path fill-rule="evenodd" clip-rule="evenodd" d="M8.40085 4.0625C7.79638 4.0625 7.25648 4.44066 7.0499 5.00874L6.66672 6.0625H6C4.65381 6.0625 3.5625 7.15381 3.5625 8.5V13C3.5625 14.3462 4.65381 15.4375 6 15.4375H14C15.3462 15.4375 16.4375 14.3462 16.4375 13V8.5C16.4375 7.15381 15.3462 6.0625 14 6.0625H13.3333L12.9501 5.00874C12.7435 4.44066 12.2036 4.0625 11.5991 4.0625H8.40085ZM13 10.5C13 12.1569 11.6569 13.5 10 13.5C8.34315 13.5 7 12.1569 7 10.5C7 8.84315 8.34315 7.5 10 7.5C11.6569 7.5 13 8.84315 13 10.5Z" fill="white"/>
</svg>
