<svg width="20" height="20" viewBox="0 0 20 20" fill="none" xmlns="http://www.w3.org/2000/svg">
<path fill-rule="evenodd" clip-rule="evenodd" d="M15.0607 10.818L10.1913 15.6874C9.80321 16.0755 9.17496 16.0783 8.78344 15.6938L4.33393 11.3237C3.94002 10.9368 3.93418 10.3039 4.32089 9.90986L9.18863 4.94939C9.47071 4.66195 9.85652 4.5 10.2593 4.5H14.5C15.0523 4.5 15.5 4.94772 15.5 5.5V9.75736C15.5 10.1552 15.342 10.5367 15.0607 10.818ZM8.11801 3.89879C8.68216 3.32389 9.45379 3 10.2593 3H14.5C15.8807 3 17 4.11929 17 5.5V9.75736C17 10.553 16.6839 11.3161 16.1213 11.8787L11.2519 16.7481C10.2818 17.7182 8.71117 17.7253 7.73238 16.7639L3.28287 12.3939C2.29809 11.4267 2.2835 9.84443 3.25027 8.85925L8.11801 3.89879ZM12.5 8.5C11.8096 8.5 11.25 7.94036 11.25 7.25C11.25 6.55964 11.8096 6 12.5 6C13.1904 6 13.75 6.55964 13.75 7.25C13.75 7.94036 13.1904 8.5 12.5 8.5Z" fill="#9E9E9E"/>
</svg>
