<svg width="32" height="32" viewBox="0 0 32 32" fill="none" xmlns="http://www.w3.org/2000/svg">
<rect width="32" height="32" rx="16" fill="#333333"/>
<path fill-rule="evenodd" clip-rule="evenodd" d="M11.4697 11.4697C11.7626 11.1768 12.2374 11.1768 12.5303 11.4697L16 14.9393L19.4697 11.4697C19.7626 11.1768 20.2374 11.1768 20.5303 11.4697C20.8232 11.7626 20.8232 12.2374 20.5303 12.5303L17.0607 16L20.5303 19.4697C20.8232 19.7626 20.8232 20.2374 20.5303 20.5303C20.2374 20.8232 19.7626 20.8232 19.4697 20.5303L16 17.0607L12.5303 20.5303C12.2374 20.8232 11.7626 20.8232 11.4697 20.5303C11.1768 20.2374 11.1768 19.7626 11.4697 19.4697L14.9393 16L11.4697 12.5303C11.1768 12.2374 11.1768 11.7626 11.4697 11.4697Z" fill="white"/>
</svg>
