<svg width="20" height="20" viewBox="0 0 20 20" fill="none" xmlns="http://www.w3.org/2000/svg">
<mask id="path-1-inside-1_3860_7616" fill="white">
<path fill-rule="evenodd" clip-rule="evenodd" d="M10 15C13.866 15 17 13 17 9C17 5 13.866 3 10 3C6.13401 3 3 5 3 9C3 11.117 3.87785 12.6738 5.27747 13.6704L5.15381 15.1543C5.07101 16.1479 5.85508 17 6.85208 17C7.26945 17 7.67231 16.8468 7.98426 16.5695L9.75309 14.9973C9.83504 14.9991 9.91735 15 10 15Z"/>
</mask>
<path d="M5.27747 13.6704L6.77229 13.7949L6.84321 12.9438L6.14751 12.4485L5.27747 13.6704ZM5.15381 15.1543L6.64863 15.2789L5.15381 15.1543ZM7.98426 16.5695L8.98081 17.6907L8.98081 17.6907L7.98426 16.5695ZM9.75309 14.9973L9.78654 13.4976L9.19716 13.4845L8.75654 13.8761L9.75309 14.9973ZM15.5 9C15.5 10.5634 14.9094 11.6208 14.0203 12.3226C13.0868 13.0596 11.6948 13.5 10 13.5V16.5C12.1712 16.5 14.2792 15.9404 15.8792 14.6774C17.5236 13.3792 18.5 11.4366 18.5 9H15.5ZM10 4.5C11.6948 4.5 13.0868 4.94041 14.0203 5.67735C14.9094 6.37922 15.5 7.43656 15.5 9H18.5C18.5 6.56344 17.5236 4.62078 15.8792 3.32265C14.2792 2.05959 12.1712 1.5 10 1.5V4.5ZM4.5 9C4.5 7.43656 5.09059 6.37922 5.97968 5.67735C6.9132 4.94041 8.30518 4.5 10 4.5V1.5C7.82883 1.5 5.7208 2.05959 4.12082 3.32265C2.47641 4.62078 1.5 6.56344 1.5 9H4.5ZM6.14751 12.4485C5.15593 11.7424 4.5 10.6477 4.5 9H1.5C1.5 11.5863 2.59977 13.6051 4.40743 14.8923L6.14751 12.4485ZM6.64863 15.2789L6.77229 13.7949L3.78265 13.5458L3.65899 15.0297L6.64863 15.2789ZM6.85208 15.5C6.73264 15.5 6.63871 15.3979 6.64863 15.2789L3.65899 15.0297C3.50331 16.8978 4.97752 18.5 6.85208 18.5V15.5ZM6.98772 15.4484C6.95034 15.4817 6.90208 15.5 6.85208 15.5V18.5C7.63682 18.5 8.39428 18.212 8.98081 17.6907L6.98772 15.4484ZM8.75654 13.8761L6.98772 15.4484L8.98081 17.6907L10.7496 16.1184L8.75654 13.8761ZM10 13.5C9.92841 13.5 9.85725 13.4992 9.78654 13.4976L9.71963 16.4969C9.81283 16.499 9.9063 16.5 10 16.5V13.5Z" fill="white" mask="url(#path-1-inside-1_3860_7616)"/>
</svg>
