<svg width="20" height="20" viewBox="0 0 20 20" fill="none" xmlns="http://www.w3.org/2000/svg">
<path fill-rule="evenodd" clip-rule="evenodd" d="M11 4H8.99996C8.72381 4 8.49996 4.22386 8.49996 4.5V5H11.5V4.5C11.5 4.22386 11.2761 4 11 4ZM13 5V4.5C13 3.39543 12.1045 2.5 11 2.5H8.99996C7.89539 2.5 6.99996 3.39543 6.99996 4.5V5H6.00117H4.49987H4.25C3.83579 5 3.5 5.33579 3.5 5.75C3.5 6.16421 3.83579 6.5 4.25 6.5H4.56237L4.88007 14.1249C4.94703 15.7318 6.2692 17 7.87747 17H12.1223C13.7305 17 15.0527 15.7318 15.1197 14.1249L15.4374 6.5H15.75C16.1642 6.5 16.5 6.16421 16.5 5.75C16.5 5.33579 16.1642 5 15.75 5H15.4999H13.9986H13ZM13.9361 6.5H13H11.5H8.49996H6.99996H6.06367L6.37877 14.0624C6.41225 14.8659 7.07333 15.5 7.87747 15.5H12.1223C12.9264 15.5 13.5875 14.8659 13.621 14.0624L13.9361 6.5ZM7.75 8.5V13.5C7.75 13.9142 8.08579 14.25 8.5 14.25C8.91421 14.25 9.25 13.9142 9.25 13.5V8.5C9.25 8.08579 8.91421 7.75 8.5 7.75C8.08579 7.75 7.75 8.08579 7.75 8.5ZM11.5 7.75C11.9142 7.75 12.25 8.08579 12.25 8.5V13.5C12.25 13.9142 11.9142 14.25 11.5 14.25C11.0858 14.25 10.75 13.9142 10.75 13.5V8.5C10.75 8.08579 11.0858 7.75 11.5 7.75Z" fill="#F97066"/>
</svg>
