<svg width="32" height="32" viewBox="0 0 32 32" fill="none" xmlns="http://www.w3.org/2000/svg">
<rect width="32" height="32" rx="16" fill="white"/>
<path fill-rule="evenodd" clip-rule="evenodd" d="M19.613 10.5085C20.6087 10.5986 21.4016 11.3915 21.4917 12.3872L20.2117 13.6671C19.8504 12.8252 19.175 12.1499 18.3331 11.7885L19.613 10.5085ZM17.113 13.0085L12.2032 17.9184C11.9938 18.1278 11.851 18.3945 11.7929 18.6849L11.4123 20.5879L13.3154 20.2073C13.5694 20.1564 13.8054 20.0408 14.0007 19.8724C14.0286 19.8484 14.0557 19.8232 14.0818 19.7971L18.9917 14.8872C18.9016 13.8915 18.1087 13.0986 17.113 13.0085ZM16.2015 11.7987L18.7009 9.29931C18.8925 9.10767 19.1525 9 19.4235 9C21.3989 9 23.0002 10.6013 23.0002 12.5767C23.0002 12.8477 22.8925 13.1077 22.7009 13.2993L20.2012 15.799C20.2011 15.7991 20.201 15.7992 20.2009 15.7993L15.1425 20.8577C14.7237 21.2765 14.1903 21.562 13.6095 21.6781L10.9711 22.2058C10.2714 22.3458 9.65445 21.7289 9.79439 21.0291L10.3221 18.3907C10.4382 17.8099 10.7237 17.2765 11.1425 16.8577L16.2009 11.7993C16.2011 11.7991 16.2013 11.7989 16.2015 11.7987Z" fill="#282828"/>
</svg>
