<svg width="20" height="20" viewBox="0 0 20 20" fill="none" xmlns="http://www.w3.org/2000/svg">
<path fill-rule="evenodd" clip-rule="evenodd" d="M13.6128 4.50853C14.6085 4.5986 15.4014 5.3915 15.4914 6.38721L14.2115 7.66715C13.8501 6.82518 13.1748 6.14986 12.3328 5.78847L13.6128 4.50853ZM11.1128 7.00853L6.20292 11.9184C5.99351 12.1278 5.85078 12.3945 5.7927 12.6849L5.4121 14.5879L7.31511 14.2073C7.5692 14.1564 7.80515 14.0408 8.00045 13.8724C8.02835 13.8484 8.05542 13.8232 8.0816 13.7971L12.9914 8.88721C12.9014 7.8915 12.1085 7.0986 11.1128 7.00853ZM10.2013 5.79871L12.7007 3.29931C12.8923 3.10767 13.1522 3 13.4233 3C15.3986 3 17 4.60135 17 6.57671C17 6.84774 16.8923 7.10767 16.7007 7.29931L14.201 9.79897C14.2009 9.79909 14.2008 9.7992 14.2007 9.79931L9.14226 14.8577C8.72345 15.2765 8.19006 15.562 7.60928 15.6781L4.97084 16.2058C4.27112 16.3458 3.6542 15.7289 3.79415 15.0291L4.32183 12.3907C4.43799 11.8099 4.72345 11.2765 5.14226 10.8577L10.2007 5.79931C10.2009 5.79911 10.2011 5.79891 10.2013 5.79871Z" fill="white"/>
</svg>
