<svg width="24" height="24" viewBox="0 0 24 24" fill="none" xmlns="http://www.w3.org/2000/svg">
<path fill-rule="evenodd" clip-rule="evenodd" d="M20.8102 12.3749L16.7297 19.4425C16.5957 19.6745 16.3482 19.8175 16.0802 19.8175H7.9193C7.65136 19.8175 7.40376 19.6745 7.26979 19.4425L3.18934 12.3749C3.05536 12.1429 3.05536 11.857 3.18934 11.6249L7.26979 4.55737C7.40376 4.32532 7.65136 4.18237 7.91931 4.18237L16.0802 4.18237C16.3482 4.18237 16.5957 4.32532 16.7297 4.55737L20.8102 11.6249C20.9441 11.857 20.9441 12.1429 20.8102 12.3749ZM22.7587 10.4999C23.2946 11.4281 23.2946 12.5717 22.7587 13.4999L18.6783 20.5675C18.1424 21.4957 17.152 22.0675 16.0802 22.0675H7.9193C6.84751 22.0675 5.85713 21.4957 5.32123 20.5675L1.24078 13.4999C0.704885 12.5717 0.704885 11.4281 1.24078 10.4999L5.32123 3.43237C5.85713 2.50417 6.84751 1.93237 7.91931 1.93237H16.0802C17.152 1.93237 18.1424 2.50417 18.6783 3.43237L22.7587 10.4999ZM14.25 11.9999C14.25 13.2426 13.2426 14.2499 12 14.2499C10.7574 14.2499 9.75 13.2426 9.75 11.9999C9.75 10.7573 10.7574 9.74992 12 9.74992C13.2426 9.74992 14.25 10.7573 14.25 11.9999ZM16.5 11.9999C16.5 14.4852 14.4853 16.4999 12 16.4999C9.51471 16.4999 7.5 14.4852 7.5 11.9999C7.5 9.51464 9.51471 7.49992 12 7.49992C14.4853 7.49992 16.5 9.51464 16.5 11.9999Z" fill="white"/>
</svg>
