<svg width="20" height="20" viewBox="0 0 20 20" fill="none" xmlns="http://www.w3.org/2000/svg">
<path fill-rule="evenodd" clip-rule="evenodd" d="M11.5 7.5V10.3028L13.8321 8.74808L15.5 7.63611V14.5C15.5 14.7761 15.2761 15 15 15H5C4.72386 15 4.5 14.7761 4.5 14.5V5C4.5 4.72386 4.72386 4.5 5 4.5H6.5C6.77614 4.5 7 4.72386 7 5V7.5V10.4457L9.38226 8.7131L11.5 7.17293V7.5ZM8.5 5V5.64525V7.5L10 6.40909L10.9027 5.75258C11.1284 5.58842 11.4003 5.5 11.6794 5.5C12.0649 5.5 12.4117 5.66512 12.6531 5.92847C12.8685 6.16346 13 6.47666 13 6.82057V7.5L14.0191 6.82057L14.4832 6.51118L14.9116 6.2256C15.1323 6.0785 15.3915 6 15.6567 6C16.3986 6 17 6.60141 17 7.34329V14.5C17 15.6046 16.1046 16.5 15 16.5H5C3.89543 16.5 3 15.6046 3 14.5V5C3 3.89543 3.89543 3 5 3H6.5C7.60457 3 8.5 3.89543 8.5 5ZM6.75 12C6.33579 12 6 12.3358 6 12.75C6 13.1642 6.33579 13.5 6.75 13.5H13.25C13.6642 13.5 14 13.1642 14 12.75C14 12.3358 13.6642 12 13.25 12H6.75Z" fill="#9E9E9E"/>
</svg>
