<svg width="24" height="24" viewBox="0 0 24 24" fill="none" xmlns="http://www.w3.org/2000/svg">
<path fill-rule="evenodd" clip-rule="evenodd" d="M2.44935 4.1932C3.59255 2.93834 5.2233 2.24902 7.14 2.24902C8.88583 2.24902 10.7501 3.07419 11.9986 4.68714C13.2422 3.07503 15.0993 2.24902 16.86 2.24902C18.7705 2.24902 20.4008 2.93482 21.5455 4.18768C22.6798 5.4291 23.25 7.13011 23.25 9.01924C23.25 12.2672 21.5808 14.8814 19.4677 16.9138C17.3592 18.9418 14.7118 20.4877 12.517 21.6232C12.1912 21.7918 11.8037 21.7909 11.4787 21.621C9.28382 20.4733 6.63562 18.9388 4.52864 16.9207C2.41417 14.8954 0.75 12.2887 0.75 9.01924C0.75 7.13661 1.31707 5.43607 2.44935 4.1932ZM4.11262 5.70847C3.43008 6.45767 3 7.57974 3 9.01924C3 11.4546 4.22409 13.5134 6.085 15.2958C7.80462 16.9429 9.98667 18.2732 12.0023 19.3525C14.0059 18.2869 16.1874 16.947 17.9079 15.2921C19.7738 13.4976 21 11.4305 21 9.01924C21 7.57475 20.5677 6.45315 19.8845 5.70537C19.2117 4.96902 18.2095 4.49902 16.86 4.49902C15.3962 4.49902 13.7202 5.44007 13.0688 7.42211C12.917 7.88379 12.486 8.19585 12 8.19585C11.514 8.19585 11.083 7.88379 10.9312 7.42211C10.2805 5.4422 8.58783 4.49902 7.14 4.49902C5.786 4.49902 4.78424 4.97125 4.11262 5.70847Z" fill="white"/>
</svg>
