<svg width="16" height="14" viewBox="0 0 16 14" fill="none" xmlns="http://www.w3.org/2000/svg">
<path fill-rule="evenodd" clip-rule="evenodd" d="M4.76 0.5C3.4822 0.5 2.39504 0.959545 1.6329 1.79612C0.878044 2.6247 0.5 3.75839 0.5 5.01348C0.5 7.19309 1.60945 8.93092 3.01909 10.2811C4.42375 11.6265 6.18921 12.6495 7.65247 13.4146C7.86916 13.5279 8.12746 13.5285 8.34463 13.4161C9.80785 12.6591 11.5728 11.6285 12.9784 10.2765C14.3872 8.92156 15.5 7.17881 15.5 5.01348C15.5 3.75406 15.1199 2.62005 14.3637 1.79244C13.6005 0.9572 12.5137 0.5 11.24 0.5C10.1638 0.5 9.27388 0.898163 8.59732 1.65054C8.37072 1.90253 8.17283 2.18878 8 2.50415C7.82717 2.18878 7.62928 1.90253 7.40268 1.65054C6.72612 0.898163 5.83617 0.5 4.76 0.5Z" fill="white"/>
</svg>
