<svg width="14" height="14" viewBox="0 0 14 14" fill="none" xmlns="http://www.w3.org/2000/svg">
<path fill-rule="evenodd" clip-rule="evenodd" d="M10.5 2L3.5 2C2.67157 2 2 2.67157 2 3.5L2 10.5C2 11.3284 2.67157 12 3.5 12L6.5 12V9.5C6.5 7.84315 7.84315 6.5 9.5 6.5H12V3.5C12 2.67157 11.3284 2 10.5 2ZM11.8033 8C11.7375 8.11538 11.6562 8.22248 11.5607 8.31802L8.31802 11.5607C8.22248 11.6562 8.11538 11.7375 8 11.8033V9.5C8 8.67157 8.67157 8 9.5 8H11.8033ZM12.6213 9.37868C13.1839 8.81607 13.5 8.05301 13.5 7.25736V3.5C13.5 1.84315 12.1569 0.5 10.5 0.5L3.5 0.499999C1.84315 0.499999 0.5 1.84314 0.5 3.5V10.5C0.5 12.1569 1.84315 13.5 3.5 13.5H7.25736C8.05301 13.5 8.81607 13.1839 9.37868 12.6213L12.6213 9.37868Z" fill="white"/>
</svg>
