<svg width="32" height="32" viewBox="0 0 32 32" fill="none" xmlns="http://www.w3.org/2000/svg">
<rect width="32" height="32" rx="8" fill="#333333"/>
<path fill-rule="evenodd" clip-rule="evenodd" d="M15.5042 13C15.5042 13.8284 14.8326 14.5 14.0042 14.5C13.1757 14.5 12.5042 13.8284 12.5042 13C12.5042 12.1716 13.1757 11.5 14.0042 11.5C14.8326 11.5 15.5042 12.1716 15.5042 13ZM16.9096 13.75C16.5766 15.0439 15.402 16 14.0042 16C12.6063 16 11.4317 15.0439 11.0987 13.75H9.75024C9.33603 13.75 9.00024 13.4142 9.00024 13C9.00024 12.5858 9.33603 12.25 9.75024 12.25H11.0987C11.4317 10.9561 12.6063 10 14.0042 10C15.402 10 16.5766 10.9561 16.9096 12.25H22.2544C22.6686 12.25 23.0044 12.5858 23.0044 13C23.0044 13.4142 22.6686 13.75 22.2544 13.75H16.9096ZM9.75 18.25L15.0948 18.25C15.4278 16.9561 16.6024 16 18.0002 16C19.3981 16 20.5727 16.9561 20.9057 18.25H22.2542C22.6684 18.25 23.0042 18.5858 23.0042 19C23.0042 19.4142 22.6684 19.75 22.2542 19.75H20.9057C20.5727 21.0439 19.3981 22 18.0002 22C16.6024 22 15.4278 21.0439 15.0948 19.75L9.75 19.75C9.33579 19.75 9 19.4142 9 19C9 18.5858 9.33579 18.25 9.75 18.25ZM18.0002 17.5C17.1718 17.5 16.5002 18.1716 16.5002 19C16.5002 19.8284 17.1718 20.5 18.0002 20.5C18.8287 20.5 19.5002 19.8284 19.5002 19C19.5002 18.1716 18.8287 17.5 18.0002 17.5Z" fill="white"/>
</svg>
