<svg width="20" height="20" viewBox="0 0 20 20" fill="none" xmlns="http://www.w3.org/2000/svg">
<path fill-rule="evenodd" clip-rule="evenodd" d="M8.45246 8.86414L9.58111 6.69148C10.0234 5.84012 10.7237 4.65797 11.4535 3.59608C12.4177 4.64081 13.3599 5.89645 14.0659 7.21831C14.8144 8.61989 15.25 10.0069 15.25 11.25C15.25 12.6769 14.3456 14.0796 13.0966 14.8632C13.1545 14.5981 13.1875 14.3105 13.1875 14C13.1875 12.745 12.5133 11.6636 12.0437 11.0375C11.7867 10.6948 11.5328 10.4129 11.3434 10.2166C11.248 10.1176 11.1668 10.0381 11.107 9.98118C11.077 9.95266 11.0523 9.92964 11.0336 9.9125L11.0103 9.89119L11.0022 9.8839L10.999 9.88111L10.9977 9.87992L10.9971 9.87939C10.9968 9.87913 10.9965 9.87889 10 11C10 11 10.456 11.4053 10.8939 12.0052C10.9242 12.0467 10.9544 12.0892 10.9843 12.1325C11.3545 12.6673 11.6875 13.3337 11.6875 14C11.6875 14.7699 11.3747 15.2764 11.0701 15.587C10.911 15.7493 10.7912 15.9665 10.7557 16.1878C10.7416 16.276 10.7409 16.3649 10.7564 16.4512C10.7676 16.5136 10.7874 16.5747 10.8166 16.6333C10.929 16.858 11.1593 17.0037 11.4097 16.983C14.2457 16.748 16.75 14.1128 16.75 11.25C16.75 8.10106 14.5729 4.71186 12.3933 2.40474C12.145 2.14188 11.7968 2 11.4352 2C11.0041 2 10.5967 2.20258 10.3495 2.55583C9.89767 3.2016 9.45267 3.89854 9.06107 4.5548C8.74893 5.07789 8.47071 5.57513 8.25 6L7.29481 4.66274C7.28963 4.65548 7.28435 4.64831 7.279 4.64122C7.09305 4.39524 6.80218 4.25001 6.4928 4.25001C6.18257 4.25001 5.88986 4.39502 5.70611 4.64497C4.61994 6.12251 3.25 8.24907 3.25 11.25C3.25 14.1128 5.75429 16.748 8.59032 16.983C8.84073 17.0037 9.07098 16.858 9.18335 16.6333C9.21264 16.5747 9.23235 16.5136 9.24358 16.4512C9.25909 16.3649 9.25837 16.276 9.24426 16.1878C9.20883 15.9665 9.08902 15.7493 8.92988 15.587C8.62534 15.2764 8.3125 14.7699 8.3125 14C8.3125 13.3337 8.6455 12.6673 9.01565 12.1325C9.04562 12.0892 9.07584 12.0467 9.10613 12.0052C9.54404 11.4053 10 11 10 11C9.00345 9.87889 9.00318 9.87913 9.00289 9.87939L9.00229 9.87992L9.00096 9.88111L8.99784 9.8839L8.98973 9.89119L8.96635 9.9125C8.94769 9.92964 8.92295 9.95266 8.89301 9.98118C8.83322 10.0381 8.75204 10.1176 8.65656 10.2166C8.46725 10.4129 8.21331 10.6948 7.95625 11.0375C7.48669 11.6636 6.8125 12.745 6.8125 14C6.8125 14.3105 6.84551 14.5981 6.90344 14.8632C5.65444 14.0796 4.75 12.6769 4.75 11.25C4.75 9.07869 5.59686 7.43756 6.49491 6.12358L7.0294 6.87186L8.45246 8.86414ZM10 11L10.9965 9.87889L10 8.99307L9.00345 9.87889L10 11Z" fill="#9E9E9E"/>
</svg>
