<svg width="22" height="23" viewBox="0 0 22 23" fill="none" xmlns="http://www.w3.org/2000/svg">
<path fill-rule="evenodd" clip-rule="evenodd" d="M8.6787 10.2962L10.3717 7.03722C11.0351 5.76017 12.0856 3.98695 13.1803 2.39413C14.6265 3.96121 16.0399 5.84467 17.0988 7.82746C18.2216 9.92984 18.875 12.0103 18.875 13.875C18.875 16.0154 17.5183 18.1195 15.6448 19.2948C15.7317 18.8971 15.7812 18.4657 15.7812 18C15.7812 16.1174 14.77 14.4954 14.0656 13.5562C13.68 13.0421 13.2991 12.6194 13.0152 12.3249C12.8719 12.1764 12.7502 12.0572 12.6605 11.9718C12.6156 11.929 12.5785 11.8945 12.5505 11.8688L12.5154 11.8368L12.5032 11.8259L12.4986 11.8217L12.4966 11.8199L12.4957 11.8191C12.4952 11.8187 12.4948 11.8183 11 13.5C11 13.5 11.684 14.108 12.3408 15.0078C12.3863 15.0701 12.4316 15.1338 12.4765 15.1987C13.0317 16.001 13.5312 17.0005 13.5312 18C13.5312 19.1549 13.062 19.9145 12.6052 20.3805C12.3665 20.624 12.1868 20.9497 12.1336 21.2817C12.1124 21.414 12.1114 21.5473 12.1346 21.6768C12.1515 21.7704 12.181 21.8621 12.225 21.9499C12.3935 22.2871 12.7389 22.5056 13.1145 22.4745C17.3686 22.122 21.125 18.1693 21.125 13.875C21.125 9.15159 17.8594 4.06779 14.59 0.607109C14.2175 0.212813 13.6953 0 13.1528 0C12.5062 0 11.895 0.303873 11.5243 0.833742C10.8465 1.8024 10.179 2.84781 9.5916 3.8322C9.12339 4.61683 8.70607 5.36269 8.375 6L6.94221 3.99411C6.93444 3.98323 6.92653 3.97247 6.91849 3.96184C6.63958 3.59286 6.20327 3.37502 5.7392 3.37502C5.27386 3.37502 4.83479 3.59253 4.55917 3.96746C2.92991 6.18377 0.875 9.37361 0.875 13.875C0.875 18.1693 4.63143 22.122 8.88548 22.4745C9.2611 22.5056 9.60647 22.2871 9.77503 21.9499C9.81896 21.8621 9.84853 21.7704 9.86537 21.6768C9.88864 21.5473 9.88756 21.414 9.86639 21.2817C9.81325 20.9497 9.63353 20.624 9.39481 20.3805C8.93801 19.9145 8.46875 19.1549 8.46875 18C8.46875 17.0005 8.96826 16.001 9.52348 15.1987C9.56843 15.1338 9.61375 15.0701 9.65919 15.0078C10.316 14.108 11 13.5 11 13.5C9.50518 11.8183 9.50476 11.8187 9.50434 11.8191L9.50343 11.8199L9.50144 11.8217L9.49675 11.8259L9.48459 11.8368L9.44953 11.8688C9.42154 11.8945 9.38443 11.929 9.33951 11.9718C9.24984 12.0572 9.12806 12.1764 8.98484 12.3249C8.70088 12.6194 8.31997 13.0421 7.93437 13.5562C7.23003 14.4954 6.21875 16.1174 6.21875 18C6.21875 18.4657 6.26826 18.8971 6.35516 19.2948C4.48166 18.1195 3.125 16.0154 3.125 13.875C3.125 10.618 4.39529 8.15634 5.74237 6.18537L6.5441 7.30779L8.6787 10.2962ZM11 13.5L12.4948 11.8183L11 10.4896L9.50518 11.8183L11 13.5Z" fill="white"/>
</svg>
