<svg width="24" height="24" viewBox="0 0 24 24" fill="none" xmlns="http://www.w3.org/2000/svg">
<path d="M20.0007 12.1776C20.0007 11.5199 19.9463 11.0399 19.8284 10.5421H12.1641V13.5109H16.6629C16.5722 14.2487 16.0824 15.3598 14.994 16.1065L14.9787 16.2059L17.402 18.0456L17.5699 18.0621C19.1118 16.6665 20.0007 14.6132 20.0007 12.1776Z" fill="#4285F4"/>
<path d="M12.1636 19.9999C14.3676 19.9999 16.2179 19.2888 17.5694 18.0622L14.9934 16.1066C14.3041 16.5777 13.3789 16.9066 12.1636 16.9066C10.0049 16.9066 8.17269 15.511 7.51958 13.5822L7.42384 13.5901L4.90405 15.5012L4.87109 15.591C6.21347 18.2043 8.97081 19.9999 12.1636 19.9999Z" fill="#34A853"/>
<path d="M7.52006 13.5822C7.34773 13.0845 7.248 12.5511 7.248 12C7.248 11.4489 7.34773 10.9156 7.511 10.4178L7.50643 10.3118L4.95505 8.37L4.87157 8.40891C4.31832 9.49336 4.00085 10.7112 4.00085 12C4.00085 13.2889 4.31832 14.5066 4.87157 15.5911L7.52006 13.5822Z" fill="#FBBC05"/>
<path d="M12.1636 7.09329C13.6964 7.09329 14.7304 7.74217 15.32 8.28443L17.6239 6.07998C16.2089 4.79111 14.3676 4 12.1636 4C8.97084 4 6.21348 5.79553 4.87109 8.40882L7.51052 10.4177C8.17271 8.48885 10.0049 7.09329 12.1636 7.09329Z" fill="#EB4335"/>
</svg>
