<svg width="64" height="64" viewBox="0 0 64 64" fill="none" xmlns="http://www.w3.org/2000/svg">
<path fill-rule="evenodd" clip-rule="evenodd" d="M29 40.25L23.3952 35.8907C22.6726 35.3287 22.25 34.4646 22.25 33.5492C22.25 31.8571 23.6444 30.56 25.25 30.5817C25.4755 30.5847 25.7052 30.6138 25.9358 30.6714L27.5 31.0625V28.7433V28.25V22.9131C27.5 21.3043 28.8043 20 30.4131 20C31.7785 20 32.9607 20.9483 33.2569 22.2812L34.25 26.75L38.3659 27.436C40.9846 27.8724 42.6582 30.4691 41.9742 33.0342L40.25 39.5L29 40.25ZM39.8002 32.4545L38.4914 37.3622L29.7051 37.948L24.7765 34.1147C24.6021 33.9789 24.5 33.7703 24.5 33.5492C24.5 33.0832 24.938 32.7412 25.3901 32.8543L26.9543 33.2453L29.75 33.9442V31.0625V28.25V22.9131C29.75 22.5469 30.0469 22.25 30.4131 22.25C30.724 22.25 30.9931 22.4659 31.0605 22.7693L32.0536 27.2381L32.3829 28.7198L33.8801 28.9694L37.996 29.6554C39.3053 29.8736 40.1422 31.1719 39.8002 32.4545ZM39.9551 43.2471C40.5749 43.2029 41.0414 42.6646 40.9971 42.0448C40.9529 41.4251 40.4146 40.9586 39.7948 41.0029L29.2948 41.7529C28.6751 41.7971 28.2086 42.3354 28.2529 42.9551C28.2971 43.5749 28.8354 44.0414 29.4552 43.9971L39.9551 43.2471Z" fill="white"/>
<path d="M22.7094 22.7906C23.1487 23.2299 23.861 23.23 24.3004 22.7906L28.0504 19.0406C28.4897 18.6013 28.4897 17.889 28.0504 17.4496C27.611 17.0103 26.8987 17.0103 26.4594 17.4496L24.6299 19.2791L24.6299 7.74512C24.6299 7.1238 24.1262 6.62012 23.5049 6.62012C22.8836 6.62012 22.3799 7.1238 22.3799 7.74512L22.3799 19.2791L20.5504 17.4496C20.111 17.0103 19.3987 17.0103 18.9594 17.4496C18.5201 17.889 18.5201 18.6013 18.9594 19.0406L22.7094 22.7906Z" fill="white"/>
</svg>
