<svg width="24" height="24" viewBox="0 0 24 24" fill="none" xmlns="http://www.w3.org/2000/svg">
<mask id="path-1-inside-1_3972_9366" fill="white">
<path fill-rule="evenodd" clip-rule="evenodd" d="M19.5 10.4657V17.2499C19.5 18.4925 18.4926 19.4999 17.25 19.4999H13.125V16.8749C13.125 16.2536 12.6213 15.7499 12 15.7499C11.3787 15.7499 10.875 16.2536 10.875 16.8749V19.4999H6.75C5.50736 19.4999 4.5 18.4925 4.5 17.2499V10.4657C4.5 9.76715 4.82446 9.10822 5.37815 8.6823L10.6281 4.64384C11.4369 4.02171 12.5631 4.02171 13.3719 4.64384L18.6218 8.6823C19.1755 9.10822 19.5 9.76715 19.5 10.4657ZM2.25 10.4657C2.25 9.0686 2.89892 7.75073 4.0063 6.8989L9.2563 2.86044C10.8738 1.61618 13.1262 1.61618 14.7437 2.86044L19.9937 6.8989C21.1011 7.75073 21.75 9.0686 21.75 10.4657V17.2499C21.75 19.7352 19.7353 21.7499 17.25 21.7499H6.75C4.26472 21.7499 2.25 19.7352 2.25 17.2499V10.4657Z"/>
</mask>
<path d="M13.125 19.4999H10.875C10.875 20.7425 11.8824 21.7499 13.125 21.7499V19.4999ZM10.875 19.4999V21.7499C12.1176 21.7499 13.125 20.7425 13.125 19.4999H10.875ZM5.37815 8.6823L4.0063 6.8989H4.0063L5.37815 8.6823ZM10.6281 4.64384L9.2563 2.86044L9.2563 2.86044L10.6281 4.64384ZM13.3719 4.64384L14.7437 2.86044V2.86044L13.3719 4.64384ZM18.6218 8.6823L17.25 10.4657L17.25 10.4657L18.6218 8.6823ZM4.0063 6.8989L5.37815 8.6823L4.0063 6.8989ZM9.2563 2.86044L7.88445 1.07703V1.07703L9.2563 2.86044ZM14.7437 2.86044L16.1155 1.07703V1.07703L14.7437 2.86044ZM19.9937 6.8989L18.6218 8.6823V8.6823L19.9937 6.8989ZM21.75 17.2499V10.4657H17.25V17.2499H21.75ZM17.25 21.7499C19.7353 21.7499 21.75 19.7352 21.75 17.2499H17.25V17.2499V21.7499ZM13.125 21.7499H17.25V17.2499H13.125V21.7499ZM10.875 16.8749V19.4999H15.375V16.8749H10.875ZM12 17.9999C11.3787 17.9999 10.875 17.4962 10.875 16.8749H15.375C15.375 15.0109 13.864 13.4999 12 13.4999V17.9999ZM13.125 16.8749C13.125 17.4962 12.6213 17.9999 12 17.9999V13.4999C10.136 13.4999 8.625 15.0109 8.625 16.8749H13.125ZM13.125 19.4999V16.8749H8.625V19.4999H13.125ZM6.75 21.7499H10.875V17.2499H6.75V21.7499ZM2.25 17.2499C2.25 19.7352 4.26472 21.7499 6.75 21.7499V17.2499L6.75 17.2499H2.25ZM2.25 10.4657V17.2499H6.75V10.4657H2.25ZM4.0063 6.8989C2.89892 7.75073 2.25 9.0686 2.25 10.4657H6.75L4.0063 6.8989ZM9.2563 2.86044L4.0063 6.8989L6.75 10.4657L12 6.42725L9.2563 2.86044ZM14.7437 2.86044C13.1262 1.61618 10.8738 1.61618 9.2563 2.86044L12 6.42725L12 6.42725L14.7437 2.86044ZM19.9937 6.8989L14.7437 2.86044L12 6.42725L17.25 10.4657L19.9937 6.8989ZM21.75 10.4657C21.75 9.0686 21.1011 7.75073 19.9937 6.8989L17.25 10.4657H21.75ZM2.63445 5.11549C0.973377 6.39324 0 8.37004 0 10.4657H4.5C4.5 9.76715 4.82446 9.10822 5.37815 8.6823L2.63445 5.11549ZM7.88445 1.07703L2.63445 5.11549L5.37815 8.6823L10.6281 4.64384L7.88445 1.07703ZM16.1155 1.07703C13.6892 -0.789351 10.3107 -0.789348 7.88445 1.07703L10.6281 4.64384C11.4369 4.02171 12.5631 4.02171 13.3719 4.64384L16.1155 1.07703ZM21.3655 5.11549L16.1155 1.07703L13.3719 4.64384L18.6218 8.6823L21.3655 5.11549ZM24 10.4657C24 8.37004 23.0266 6.39324 21.3655 5.11549L18.6218 8.6823C19.1755 9.10822 19.5 9.76715 19.5 10.4657H24ZM24 17.2499V10.4657H19.5V17.2499H24ZM17.25 23.9999C20.9779 23.9999 24 20.9778 24 17.2499H19.5C19.5 18.4925 18.4926 19.4999 17.25 19.4999V23.9999ZM6.75 23.9999H17.25V19.4999H6.75V23.9999ZM0 17.2499C0 20.9778 3.02208 23.9999 6.75 23.9999V19.4999C5.50736 19.4999 4.5 18.4925 4.5 17.2499H0ZM0 10.4657V17.2499H4.5V10.4657H0Z" fill="white" mask="url(#path-1-inside-1_3972_9366)"/>
</svg>
