<svg width="40" height="40" viewBox="0 0 40 40" fill="none" xmlns="http://www.w3.org/2000/svg">
<rect width="40" height="40" rx="4" fill="#484848"/>
<mask id="path-2-inside-1_3746_2791" fill="white">
<path fill-rule="evenodd" clip-rule="evenodd" d="M20.0171 12.0002C21.553 12.0016 23.0684 12.1915 24.2884 12.8374C25.5618 13.5115 26.4521 14.651 26.7398 16.3769C26.8079 16.7855 26.5319 17.1719 26.1233 17.24C24.5245 17.5065 22.9592 17.3917 21.6966 16.6862C20.7236 16.1424 19.994 15.2834 19.5729 14.1188C19.2651 15.0773 19.3171 15.9267 19.6202 16.5977C19.9449 17.3167 20.5971 17.9187 21.609 18.2487C22.0422 18.088 22.5108 18.0002 23 18.0002C25.2091 18.0002 27 19.7911 27 22.0002C27 24.2093 25.2091 26.0002 23 26.0002C22.0204 26.0002 21.123 25.6481 20.4276 25.0635C19.7275 26.2242 18.4544 27.0004 17 27.0004C14.7909 27.0004 13 25.2095 13 23.0004C13 21.2464 14.1289 19.7561 15.6997 19.2165C15.5168 17.7767 15.6718 16.3852 16.2623 15.164C16.9135 13.817 18.062 12.7454 19.7106 12.0583L19.7115 12.0579C19.8115 12.0162 19.9154 11.9978 20.0171 12.0002ZM17.1849 19.0046C18.0923 19.0459 18.9209 19.3895 19.5724 19.9371C19.7279 19.6793 19.9117 19.4404 20.1195 19.2248C19.2741 18.743 18.6333 18.0566 18.2532 17.2151C17.9935 16.6403 17.8654 16.0152 17.8659 15.3642C17.7718 15.5111 17.6875 15.6622 17.6127 15.8169C17.1779 16.7162 17.0346 17.7964 17.1849 19.0046ZM20.9734 23.4643C20.991 23.3121 21 23.1573 21 23.0004C21 22.381 20.8592 21.7946 20.608 21.2712C20.92 20.2461 21.8729 19.5002 23 19.5002C24.3807 19.5002 25.5 20.6195 25.5 22.0002C25.5 23.3809 24.3807 24.5002 23 24.5002C22.1661 24.5002 21.4276 24.0919 20.9734 23.4643ZM22.4284 15.3767C21.788 15.0189 21.2632 14.4356 20.9554 13.5301C21.9983 13.5995 22.8903 13.7944 23.5866 14.163C24.2504 14.5145 24.7672 15.0388 25.0634 15.8564C24.0149 15.926 23.1184 15.7624 22.4284 15.3767ZM19.5 23.0004C19.5 21.6197 18.3807 20.5004 17 20.5004C15.6193 20.5004 14.5 21.6197 14.5 23.0004C14.5 24.3811 15.6193 25.5004 17 25.5004C18.3807 25.5004 19.5 24.3811 19.5 23.0004Z"/>
</mask>
<path d="M24.2884 12.8374L24.9902 11.5117L24.9902 11.5117L24.2884 12.8374ZM20.0171 12.0002L19.9821 13.4998C19.9933 13.5001 20.0045 13.5002 20.0157 13.5002L20.0171 12.0002ZM26.7398 16.3769L25.2602 16.6235L25.2602 16.6235L26.7398 16.3769ZM26.1233 17.24L25.8767 15.7604L25.8767 15.7604L26.1233 17.24ZM21.6966 16.6862L20.9649 17.9956L21.6966 16.6862ZM19.5729 14.1188L20.9835 13.6087C20.7652 13.0052 20.1873 12.6074 19.5457 12.6191C18.9041 12.6307 18.3409 13.0492 18.1447 13.6602L19.5729 14.1188ZM19.6202 16.5977L20.9872 15.9802V15.9802L19.6202 16.5977ZM21.609 18.2487L21.1438 19.6748C21.4656 19.7797 21.8133 19.7728 22.1306 19.6551L21.609 18.2487ZM20.4276 25.0635L21.3928 23.9153C21.0571 23.633 20.6147 23.5119 20.182 23.5837C19.7493 23.6555 19.3697 23.9131 19.1432 24.2887L20.4276 25.0635ZM15.6997 19.2165L16.1871 20.6351C16.8596 20.4041 17.2774 19.7327 17.1878 19.0274L15.6997 19.2165ZM16.2623 15.164L17.6127 15.8169V15.8169L16.2623 15.164ZM19.7106 12.0583L19.1337 10.6736L19.1335 10.6737L19.7106 12.0583ZM19.7115 12.0579L20.2884 13.4425L20.2885 13.4425L19.7115 12.0579ZM17.1849 19.0046L15.6963 19.1897C15.7866 19.9151 16.3865 20.4698 17.1167 20.503L17.1849 19.0046ZM19.5724 19.9371L18.6072 21.0853C18.9429 21.3676 19.3853 21.4887 19.818 21.4169C20.2507 21.3451 20.6303 21.0875 20.8568 20.7119L19.5724 19.9371ZM20.1195 19.2248L21.1996 20.2657C21.5208 19.9324 21.6701 19.4694 21.6042 19.0112C21.5383 18.553 21.2645 18.1509 20.8623 17.9216L20.1195 19.2248ZM18.2532 17.2151L16.8861 17.8326L18.2532 17.2151ZM17.8659 15.3642L19.3659 15.3653C19.3664 14.6991 18.9274 14.1124 18.2881 13.9249C17.6488 13.7374 16.9625 13.994 16.603 14.5549L17.8659 15.3642ZM17.6127 15.8169L18.9632 16.4698L18.9632 16.4698L17.6127 15.8169ZM20.9734 23.4643L19.4833 23.2922C19.4403 23.6648 19.5383 24.04 19.7582 24.3438L20.9734 23.4643ZM20.608 21.2712L19.1729 20.8345C19.0635 21.194 19.093 21.5816 19.2557 21.9205L20.608 21.2712ZM20.9554 13.5301L21.055 12.0334C20.5547 12.0001 20.0709 12.219 19.7656 12.6166C19.4603 13.0143 19.3738 13.5382 19.5352 14.0129L20.9554 13.5301ZM22.4284 15.3767L23.1601 14.0673V14.0673L22.4284 15.3767ZM23.5866 14.163L24.2884 12.8374L24.2884 12.8374L23.5866 14.163ZM25.0634 15.8564L25.1628 17.3531C25.6332 17.3219 26.0616 17.0713 26.3194 16.6765C26.5771 16.2817 26.6343 15.7887 26.4737 15.3454L25.0634 15.8564ZM14.5 23.0004H13H13H14.5ZM24.9902 11.5117C23.4473 10.6948 21.6386 10.5017 20.0185 10.5002L20.0157 13.5002C21.4673 13.5015 22.6895 13.6881 23.5866 14.163L24.9902 11.5117ZM28.2194 16.1303C27.8565 13.9527 26.6854 12.4091 24.9902 11.5117L23.5866 14.163C24.4381 14.6139 25.0478 15.3493 25.2602 16.6235L28.2194 16.1303ZM26.3699 18.7196C27.5956 18.5153 28.4237 17.356 28.2194 16.1303L25.2602 16.6235C25.1921 16.2149 25.4681 15.8285 25.8767 15.7604L26.3699 18.7196ZM20.9649 17.9956C22.628 18.9249 24.5739 19.0189 26.3699 18.7196L25.8767 15.7604C24.4751 15.994 23.2905 15.8585 22.4284 15.3767L20.9649 17.9956ZM18.1623 14.629C18.699 16.1132 19.659 17.2658 20.9649 17.9956L22.4284 15.3767C21.7883 15.0191 21.289 14.4535 20.9835 13.6087L18.1623 14.629ZM20.9872 15.9802C20.8601 15.6987 20.7886 15.2389 21.001 14.5775L18.1447 13.6602C17.7415 14.9158 17.7742 16.1548 18.2532 17.2151L20.9872 15.9802ZM22.0741 16.8226C21.4106 16.6062 21.1168 16.2672 20.9872 15.9802L18.2532 17.2151C18.773 18.3661 19.7836 19.2311 21.1438 19.6748L22.0741 16.8226ZM23 16.5002C22.3301 16.5002 21.685 16.6206 21.0873 16.8423L22.1306 19.6551C22.3994 19.5554 22.6916 19.5002 23 19.5002V16.5002ZM28.5 22.0002C28.5 18.9626 26.0376 16.5002 23 16.5002V19.5002C24.3807 19.5002 25.5 20.6195 25.5 22.0002H28.5ZM23 27.5002C26.0376 27.5002 28.5 25.0378 28.5 22.0002H25.5C25.5 23.3809 24.3807 24.5002 23 24.5002V27.5002ZM19.4624 26.2117C20.418 27.015 21.6543 27.5002 23 27.5002V24.5002C22.3865 24.5002 21.8281 24.2811 21.3928 23.9153L19.4624 26.2117ZM19.1432 24.2887C18.7032 25.0181 17.9072 25.5004 17 25.5004V28.5004C19.0015 28.5004 20.7517 27.4303 21.712 25.8382L19.1432 24.2887ZM17 25.5004C15.6193 25.5004 14.5 24.3811 14.5 23.0004H11.5C11.5 26.038 13.9624 28.5004 17 28.5004V25.5004ZM14.5 23.0004C14.5 21.9065 15.2035 20.973 16.1871 20.6351L15.2124 17.7979C13.0543 18.5393 11.5 20.5864 11.5 23.0004H14.5ZM14.9118 14.5111C14.1684 16.0488 14.0007 17.745 14.2117 19.4056L17.1878 19.0274C17.0329 17.8084 17.1753 16.7217 17.6127 15.8169L14.9118 14.5111ZM19.1335 10.6737C17.187 11.485 15.7409 12.7962 14.9118 14.5111L17.6127 15.8169C18.0861 14.8377 18.937 14.0058 20.2877 13.4428L19.1335 10.6737ZM19.1346 10.6733L19.1337 10.6736L20.2875 13.4429L20.2884 13.4425L19.1346 10.6733ZM20.0521 10.5006C19.7447 10.4934 19.432 10.5494 19.1346 10.6733L20.2885 13.4425C20.191 13.4831 20.0861 13.5022 19.9821 13.4998L20.0521 10.5006ZM17.1167 20.503C17.6833 20.5288 18.1992 20.7423 18.6072 21.0853L20.5376 18.7889C19.6427 18.0367 18.5014 17.5629 17.2531 17.5061L17.1167 20.503ZM19.0394 18.1839C18.7543 18.4798 18.5018 18.8079 18.288 19.1624L20.8568 20.7119C20.954 20.5507 21.0692 20.401 21.1996 20.2657L19.0394 18.1839ZM16.8861 17.8326C17.4057 18.9829 18.2758 19.9005 19.3767 20.528L20.8623 17.9216C20.2725 17.5855 19.8608 17.1304 19.6202 16.5977L16.8861 17.8326ZM16.3659 15.3632C16.3653 16.2138 16.5333 17.0513 16.8861 17.8326L19.6202 16.5977C19.4538 16.2293 19.3656 15.8166 19.3659 15.3653L16.3659 15.3632ZM18.9632 16.4698C19.0124 16.368 19.0675 16.2693 19.1288 16.1736L16.603 14.5549C16.4761 14.753 16.3627 14.9563 16.2623 15.164L18.9632 16.4698ZM18.6734 18.8195C18.5506 17.8323 18.6802 17.055 18.9632 16.4698L16.2623 15.164C15.6756 16.3774 15.5186 17.7606 15.6963 19.1897L18.6734 18.8195ZM19.5 23.0004C19.5 23.0997 19.4943 23.197 19.4833 23.2922L22.4635 23.6365C22.4876 23.4272 22.5 23.215 22.5 23.0004H19.5ZM19.2557 21.9205C19.4118 22.2456 19.5 22.6106 19.5 23.0004H22.5C22.5 22.1515 22.3066 21.3436 21.9602 20.622L19.2557 21.9205ZM23 18.0002C21.1944 18.0002 19.6718 19.1955 19.1729 20.8345L22.043 21.708C22.1681 21.2967 22.5514 21.0002 23 21.0002V18.0002ZM27 22.0002C27 19.7911 25.2091 18.0002 23 18.0002V21.0002C23.5523 21.0002 24 21.4479 24 22.0002H27ZM23 26.0002C25.2091 26.0002 27 24.2093 27 22.0002H24C24 22.5525 23.5523 23.0002 23 23.0002V26.0002ZM19.7582 24.3438C20.4824 25.3443 21.6646 26.0002 23 26.0002V23.0002C22.6676 23.0002 22.3728 22.8395 22.1885 22.5849L19.7582 24.3438ZM19.5352 14.0129C19.958 15.2566 20.7208 16.1408 21.6966 16.6862L23.1601 14.0673C22.8553 13.897 22.5684 13.6146 22.3755 13.0473L19.5352 14.0129ZM24.2884 12.8374C23.3316 12.3308 22.2047 12.11 21.055 12.0334L20.8557 15.0268C21.7919 15.0891 22.449 15.258 22.8848 15.4887L24.2884 12.8374ZM26.4737 15.3454C26.0389 14.1453 25.2495 13.3461 24.2884 12.8374L22.8848 15.4887C23.2514 15.6828 23.4955 15.9324 23.6531 16.3674L26.4737 15.3454ZM21.6966 16.6862C22.71 17.2524 23.9172 17.4358 25.1628 17.3531L24.964 14.3597C24.1125 14.4162 23.5269 14.2723 23.1601 14.0673L21.6966 16.6862ZM17 22.0004C17.5523 22.0004 18 22.4481 18 23.0004H21C21 20.7913 19.2091 19.0004 17 19.0004V22.0004ZM16 23.0004C16 22.4481 16.4477 22.0004 17 22.0004V19.0004C14.7909 19.0004 13 20.7913 13 23.0004H16ZM17 24.0004C16.4477 24.0004 16 23.5527 16 23.0004H13C13 25.2095 14.7909 27.0004 17 27.0004V24.0004ZM18 23.0004C18 23.5527 17.5523 24.0004 17 24.0004V27.0004C19.2091 27.0004 21 25.2095 21 23.0004H18Z" fill="#696969" mask="url(#path-2-inside-1_3746_2791)"/>
</svg>
