<svg width="20" height="20" viewBox="0 0 20 20" fill="none" xmlns="http://www.w3.org/2000/svg">
<path fill-rule="evenodd" clip-rule="evenodd" d="M11.2176 15.6955C11.3903 15.612 11.5 15.4371 11.5 15.2453V14.7776C11.5 14.6082 11.5087 14.4414 11.525 14.2771C10.533 14.5743 9.467 14.5743 8.47497 14.2771C8.49131 14.4414 8.5 14.6082 8.5 14.7776V15.2453C8.5 15.4371 8.60972 15.612 8.78241 15.6955L8.91208 15.7581L8.27927 17.0674L8.91208 15.7582C9.59933 16.0903 10.4007 16.0903 11.0879 15.7582L11.2176 15.6955L11.8703 17.046L11.7407 17.1087C10.6411 17.6401 9.35892 17.6401 8.25933 17.1087L8.12966 17.046C7.43889 16.7121 7 16.0125 7 15.2453V14.7776C7 13.4257 6.22425 12.2206 5.46 11.1055C4.85434 10.2218 4.5 9.15227 4.5 8C4.5 4.96243 6.96243 2.5 10 2.5C13.0376 2.5 15.5 4.96243 15.5 8C15.5 9.15227 15.1457 10.2218 14.54 11.1055C13.7758 12.2206 13 13.4257 13 14.7776V15.2453C13 16.0125 12.5611 16.7121 11.8703 17.046L11.2176 15.6955ZM7.9611 12.4055C9.18905 13.1982 10.811 13.1982 12.0389 12.4055C12.411 11.5604 12.9079 10.8336 13.3027 10.2575C13.7427 9.61551 14 8.84006 14 8C14 5.79086 12.2091 4 10 4C7.79086 4 6 5.79086 6 8C6 8.84006 6.25731 9.61551 6.6973 10.2575C7.09213 10.8336 7.58903 11.5604 7.9611 12.4055ZM9.25 6.24999C9.25001 5.83578 9.5858 5.49999 10 5.5C11.3807 5.50002 12.5 6.6193 12.5 8C12.5 8.41421 12.1642 8.75 11.75 8.75C11.3358 8.75 11 8.41421 11 8C11 7.44772 10.5523 7.00001 9.99999 7C9.58578 6.99999 9.24999 6.6642 9.25 6.24999Z" fill="#9E9E9E"/>
</svg>
