<svg width="12" height="16" viewBox="0 0 12 16" fill="none" xmlns="http://www.w3.org/2000/svg">
<path fill-rule="evenodd" clip-rule="evenodd" d="M4.3 2L1.9 0.5L-5.90104e-07 2L-7.38187e-08 13.8112L0 15.5L1.5 14.7241L2.9 14L5.3 15.5L7.7 14L10.1 15.5L12 14L12 2.18877L12 0.499999L10.5 1.27586L9.1 2L6.7 0.5L4.3 2ZM6.7 2.26887L5.095 3.272L4.3 3.76887L3.505 3.272L2.00056 2.33172L1.5 2.7269L1.5 13.0354L2.21087 12.6677L2.97012 12.275L3.695 12.728L5.3 13.7311L6.905 12.728L7.7 12.2311L8.495 12.728L9.99944 13.6683L10.5 13.2731L10.5 2.96464L9.78914 3.33233L9.02988 3.72504L8.305 3.272L6.7 2.26887ZM3 6.5C3 6.08579 3.33579 5.75 3.75 5.75L8.25 5.75C8.66421 5.75 9 6.08579 9 6.5C9 6.91421 8.66421 7.25 8.25 7.25L3.75 7.25C3.33579 7.25 3 6.91421 3 6.5ZM3.75 8.75C3.33579 8.75 3 9.08579 3 9.5C3 9.91421 3.33579 10.25 3.75 10.25L6.25 10.25C6.66421 10.25 7 9.91421 7 9.5C7 9.08579 6.66421 8.75 6.25 8.75L3.75 8.75Z" fill="#9E9E9E"/>
</svg>
