<svg width="24" height="24" viewBox="0 0 24 24" fill="none" xmlns="http://www.w3.org/2000/svg">
<path fill-rule="evenodd" clip-rule="evenodd" d="M6.40909 7.5H7.98505L8.52363 6.01892L8.89644 4.99369C9.00422 4.6973 9.2859 4.5 9.60128 4.5H14.3987C14.7141 4.5 14.9958 4.6973 15.1036 4.99369L15.4764 6.01892L16.0149 7.5H17.5909H18C19.2426 7.5 20.25 8.50736 20.25 9.75V16.5C20.25 17.7426 19.2426 18.75 18 18.75H6C4.75736 18.75 3.75 17.7426 3.75 16.5V9.75C3.75 8.50736 4.75736 7.5 6 7.5H6.40909ZM9.60128 2.25C8.33976 2.25 7.21302 3.0392 6.7819 4.22477L6.40909 5.25H6C3.51472 5.25 1.5 7.26472 1.5 9.75V16.5C1.5 18.9853 3.51472 21 6 21H18C20.4853 21 22.5 18.9853 22.5 16.5V9.75C22.5 7.26472 20.4853 5.25 18 5.25H17.5909L17.2181 4.22477C16.787 3.0392 15.6602 2.25 14.3987 2.25H9.60128ZM14.25 12.75C14.25 13.9926 13.2426 15 12 15C10.7574 15 9.75 13.9926 9.75 12.75C9.75 11.5074 10.7574 10.5 12 10.5C13.2426 10.5 14.25 11.5074 14.25 12.75ZM16.5 12.75C16.5 15.2353 14.4853 17.25 12 17.25C9.51472 17.25 7.5 15.2353 7.5 12.75C7.5 10.2647 9.51472 8.25 12 8.25C14.4853 8.25 16.5 10.2647 16.5 12.75Z" fill="white"/>
</svg>
