<svg width="44" height="44" viewBox="0 0 44 44" fill="none" xmlns="http://www.w3.org/2000/svg">
<rect width="44" height="44" rx="22" fill="#333333"/>
<path fill-rule="evenodd" clip-rule="evenodd" d="M22 16.075L24.1934 20.0001L19.8066 20.0001L22 16.075ZM20.9088 14.9527C21.3858 14.0991 22.6142 14.0991 23.0912 14.9527L25.7107 19.6403C26.1763 20.4735 25.574 21.5001 24.6195 21.5001L19.3805 21.5001C18.426 21.5001 17.8237 20.4735 18.2893 19.6403L20.9088 14.9527ZM16 25.7501C16 26.8547 16.8954 27.7501 18 27.7501C19.1046 27.7501 20 26.8547 20 25.7501C20 24.6455 19.1046 23.7501 18 23.7501C16.8954 23.7501 16 24.6455 16 25.7501ZM18 22.2501C16.067 22.2501 14.5 23.8171 14.5 25.7501C14.5 27.6831 16.067 29.2501 18 29.2501C19.933 29.2501 21.5 27.6831 21.5 25.7501C21.5 23.8171 19.933 22.2501 18 22.2501ZM28 27.5001H24.5V24.0001H28V27.5001ZM23 23.7501C23 23.0597 23.5596 22.5001 24.25 22.5001H28.25C28.9404 22.5001 29.5 23.0597 29.5 23.7501V27.7501C29.5 28.4404 28.9404 29.0001 28.25 29.0001H24.25C23.5596 29.0001 23 28.4404 23 27.7501V23.7501Z" fill="white"/>
</svg>
