<svg width="16" height="16" viewBox="0 0 16 16" fill="none" xmlns="http://www.w3.org/2000/svg">
<path fill-rule="evenodd" clip-rule="evenodd" d="M8 2.07498L10.1934 6.00009L5.80656 6.00009L8 2.07498ZM6.90882 0.952724C7.38585 0.0990932 8.61415 0.0990913 9.09118 0.952722L11.7107 5.64031C12.1763 6.47352 11.574 7.50009 10.6195 7.50009L5.38047 7.50009C4.42598 7.50009 3.82367 6.47352 4.28929 5.64031L6.90882 0.952724ZM2 11.7501C2 12.8547 2.89543 13.7501 4 13.7501C5.10457 13.7501 6 12.8547 6 11.7501C6 10.6455 5.10457 9.75009 4 9.75009C2.89543 9.75009 2 10.6455 2 11.7501ZM4 8.25009C2.067 8.25009 0.5 9.81709 0.5 11.7501C0.5 13.6831 2.067 15.2501 4 15.2501C5.933 15.2501 7.5 13.6831 7.5 11.7501C7.5 9.81709 5.933 8.25009 4 8.25009ZM14 13.5001H10.5V10.0001H14V13.5001ZM9 9.75009C9 9.05973 9.55964 8.50009 10.25 8.50009H14.25C14.9404 8.50009 15.5 9.05973 15.5 9.75009V13.7501C15.5 14.4404 14.9404 15.0001 14.25 15.0001H10.25C9.55964 15.0001 9 14.4404 9 13.7501V9.75009Z" fill="white"/>
</svg>
