<svg width="24" height="24" viewBox="0 0 24 24" fill="none" xmlns="http://www.w3.org/2000/svg">
<path fill-rule="evenodd" clip-rule="evenodd" d="M17.25 4.5L6.75 4.5C5.50736 4.5 4.5 5.50736 4.5 6.75L4.5 17.25C4.5 18.4926 5.50736 19.5 6.75 19.5H11.25V15.75C11.25 13.2647 13.2647 11.25 15.75 11.25H19.5L19.5 6.75C19.5 5.50736 18.4926 4.5 17.25 4.5ZM19.2049 13.5C19.1063 13.6731 18.9843 13.8337 18.841 13.977L13.977 18.841C13.8337 18.9843 13.6731 19.1063 13.5 19.2049V15.75C13.5 14.5074 14.5074 13.5 15.75 13.5H19.2049ZM20.432 15.568C21.2759 14.7241 21.75 13.5795 21.75 12.386V6.75C21.75 4.26472 19.7353 2.25 17.25 2.25L6.75 2.25C4.26472 2.25 2.25 4.26472 2.25 6.75V17.25C2.25 19.7353 4.26472 21.75 6.75 21.75H12.386C13.5795 21.75 14.7241 21.2759 15.568 20.432L20.432 15.568Z" fill="#282828"/>
</svg>
