<svg width="20" height="20" viewBox="0 0 20 20" fill="none" xmlns="http://www.w3.org/2000/svg">
<path fill-rule="evenodd" clip-rule="evenodd" d="M7.5 8C8.32843 8 9 7.32843 9 6.5C9 5.67157 8.32843 5 7.5 5C6.67157 5 6 5.67157 6 6.5C6 7.32843 6.67157 8 7.5 8ZM7.5 9.5C9.15685 9.5 10.5 8.15685 10.5 6.5C10.5 4.84315 9.15685 3.5 7.5 3.5C5.84315 3.5 4.5 4.84315 4.5 6.5C4.5 8.15685 5.84315 9.5 7.5 9.5ZM4.47125 12.3859C3.69423 12.9255 3.5 13.4485 3.5 13.6923C3.5 14.1384 3.86162 14.5 4.30769 14.5H10.6923C11.1384 14.5 11.5 14.1384 11.5 13.6923C11.5 13.4485 11.3058 12.9255 10.5288 12.3859C9.79249 11.8746 8.71829 11.5 7.5 11.5C6.28171 11.5 5.20751 11.8746 4.47125 12.3859ZM2 13.6923C2 11.8462 4.475 10 7.5 10C8.68089 10 9.77796 10.2813 10.6767 10.7342C11.4501 10.2858 12.4333 10 13.5 10C15.975 10 18 11.5385 18 13.0769C18 14.139 17.139 15 16.0769 15H12.594C12.1778 15.604 11.4813 16 10.6923 16H4.30769C3.03319 16 2 14.9668 2 13.6923ZM12.9911 13.5H16.0769C16.3106 13.5 16.5 13.3106 16.5 13.0769C16.5 12.9743 16.4039 12.6048 15.8119 12.1861C15.2575 11.794 14.437 11.5 13.5 11.5C12.9828 11.5 12.5012 11.5895 12.0802 11.7357C12.6064 12.2701 12.9342 12.8815 12.9911 13.5ZM14.5 7C14.5 7.55228 14.0523 8 13.5 8C12.9477 8 12.5 7.55228 12.5 7C12.5 6.44772 12.9477 6 13.5 6C14.0523 6 14.5 6.44772 14.5 7ZM16 7C16 8.38071 14.8807 9.5 13.5 9.5C12.1193 9.5 11 8.38071 11 7C11 5.61929 12.1193 4.5 13.5 4.5C14.8807 4.5 16 5.61929 16 7Z" fill="#9E9E9E"/>
</svg>
