<svg width="14" height="14" viewBox="0 0 14 14" fill="none" xmlns="http://www.w3.org/2000/svg">
<path fill-rule="evenodd" clip-rule="evenodd" d="M12.5 7C12.5 10.0376 10.0376 12.5 7 12.5C3.96243 12.5 1.5 10.0376 1.5 7C1.5 3.96243 3.96243 1.5 7 1.5C10.0376 1.5 12.5 3.96243 12.5 7ZM14 7C14 10.866 10.866 14 7 14C3.13401 14 0 10.866 0 7C0 3.13401 3.13401 0 7 0C10.866 0 14 3.13401 14 7ZM7.75 3.5C7.75 3.08579 7.41421 2.75 7 2.75C6.58579 2.75 6.25 3.08579 6.25 3.5V7C6.25 7.23607 6.36115 7.45836 6.55 7.6L8.55 9.1C8.88137 9.34853 9.35147 9.28137 9.6 8.95C9.84853 8.61863 9.78137 8.14853 9.45 7.9L7.75 6.625V3.5Z" fill="#9E9E9E"/>
</svg>
