<svg width="44" height="44" viewBox="0 0 44 44" fill="none" xmlns="http://www.w3.org/2000/svg">
<rect width="44" height="44" rx="22" fill="#333333"/>
<path fill-rule="evenodd" clip-rule="evenodd" d="M19.5 14.75C19.5 14.3358 19.8358 14 20.25 14H23.75C24.1642 14 24.5 14.3358 24.5 14.75C24.5 15.1642 24.1642 15.5 23.75 15.5H20.25C19.8358 15.5 19.5 15.1642 19.5 14.75ZM27 23C27 25.7614 24.7614 28 22 28C19.2386 28 17 25.7614 17 23C17 20.2386 19.2386 18 22 18C24.7614 18 27 20.2386 27 23ZM28.5 23C28.5 26.5899 25.5899 29.5 22 29.5C18.4101 29.5 15.5 26.5899 15.5 23C15.5 19.4101 18.4101 16.5 22 16.5C25.5899 16.5 28.5 19.4101 28.5 23ZM22.75 20C22.75 19.5858 22.4142 19.25 22 19.25C21.5858 19.25 21.25 19.5858 21.25 20V23C21.25 23.2361 21.3611 23.4584 21.55 23.6L22.8833 24.6C23.2147 24.8485 23.6848 24.7814 23.9333 24.45C24.1819 24.1186 24.1147 23.6485 23.7833 23.4L22.75 22.625V20ZM27.2803 15.7197C26.9874 15.4268 26.5126 15.4268 26.2197 15.7197C25.9268 16.0126 25.9268 16.4874 26.2197 16.7803L27.7197 18.2803C28.0126 18.5732 28.4874 18.5732 28.7803 18.2803C29.0732 17.9874 29.0732 17.5126 28.7803 17.2197L27.2803 15.7197Z" fill="white"/>
</svg>
