<svg width="20" height="20" viewBox="0 0 20 20" fill="none" xmlns="http://www.w3.org/2000/svg">
<path fill-rule="evenodd" clip-rule="evenodd" d="M7.5 2.75C7.5 2.33579 7.83579 2 8.25 2H11.75C12.1642 2 12.5 2.33579 12.5 2.75C12.5 3.16421 12.1642 3.5 11.75 3.5H8.25C7.83579 3.5 7.5 3.16421 7.5 2.75ZM15 11C15 13.7614 12.7614 16 10 16C7.23858 16 5 13.7614 5 11C5 8.23858 7.23858 6 10 6C12.7614 6 15 8.23858 15 11ZM16.5 11C16.5 14.5899 13.5899 17.5 10 17.5C6.41015 17.5 3.5 14.5899 3.5 11C3.5 7.41015 6.41015 4.5 10 4.5C13.5899 4.5 16.5 7.41015 16.5 11ZM10.75 8C10.75 7.58579 10.4142 7.25 10 7.25C9.58579 7.25 9.25 7.58579 9.25 8V11C9.25 11.2361 9.36115 11.4584 9.55 11.6L10.8833 12.6C11.2147 12.8485 11.6848 12.7814 11.9333 12.45C12.1819 12.1186 12.1147 11.6485 11.7833 11.4L10.75 10.625V8ZM15.2803 3.71967C14.9874 3.42678 14.5126 3.42678 14.2197 3.71967C13.9268 4.01256 13.9268 4.48744 14.2197 4.78033L15.7197 6.28033C16.0126 6.57322 16.4874 6.57322 16.7803 6.28033C17.0732 5.98744 17.0732 5.51256 16.7803 5.21967L15.2803 3.71967Z" fill="#282828"/>
</svg>
