<svg width="10" height="10" viewBox="0 0 10 10" fill="none" xmlns="http://www.w3.org/2000/svg">
<path fill-rule="evenodd" clip-rule="evenodd" d="M7.96967 9.78033C8.26256 10.0732 8.73744 10.0732 9.03033 9.78033C9.32322 9.48744 9.32322 9.01256 9.03033 8.71967L5.53033 5.21967C5.23744 4.92678 4.76256 4.92678 4.46967 5.21967L0.969669 8.71967C0.676777 9.01256 0.676777 9.48744 0.969669 9.78033C1.26256 10.0732 1.73744 10.0732 2.03033 9.78033L5 6.81066L7.96967 9.78033ZM7.96967 4.78033C8.26256 5.07322 8.73744 5.07322 9.03033 4.78033C9.32322 4.48744 9.32322 4.01256 9.03033 3.71967L5.53033 0.219669C5.23744 -0.0732235 4.76256 -0.0732235 4.46967 0.219669L0.96967 3.71967C0.676777 4.01256 0.676777 4.48744 0.96967 4.78033C1.26256 5.07322 1.73744 5.07322 2.03033 4.78033L5 1.81066L7.96967 4.78033Z" fill="white"/>
</svg>
