<svg width="20" height="20" viewBox="0 0 20 20" fill="none" xmlns="http://www.w3.org/2000/svg">
<path fill-rule="evenodd" clip-rule="evenodd" d="M4 4.5C3.58579 4.5 3.25 4.83579 3.25 5.25C3.25 5.66421 3.58579 6 4 6H16C16.4142 6 16.75 5.66421 16.75 5.25C16.75 4.83579 16.4142 4.5 16 4.5H4ZM3.25 10C3.25 9.58579 3.58579 9.25 4 9.25H16C16.4142 9.25 16.75 9.58579 16.75 10C16.75 10.4142 16.4142 10.75 16 10.75H4C3.58579 10.75 3.25 10.4142 3.25 10ZM3.25 14.75C3.25 14.3358 3.58579 14 4 14H16C16.4142 14 16.75 14.3358 16.75 14.75C16.75 15.1642 16.4142 15.5 16 15.5H4C3.58579 15.5 3.25 15.1642 3.25 14.75Z" fill="#9E9E9E"/>
</svg>
